<?xml version="1.0" encoding="utf-8" standalone="no"?>
<!DOCTYPE svg PUBLIC "-//W3C//DTD SVG 1.1//EN"
  "http://www.w3.org/Graphics/SVG/1.1/DTD/svg11.dtd">
<svg xmlns:xlink="http://www.w3.org/1999/xlink" width="460.8pt" height="345.6pt" viewBox="0 0 460.8 345.6" xmlns="http://www.w3.org/2000/svg" version="1.1">
 <metadata>
  <rdf:RDF xmlns:dc="http://purl.org/dc/elements/1.1/" xmlns:cc="http://creativecommons.org/ns#" xmlns:rdf="http://www.w3.org/1999/02/22-rdf-syntax-ns#">
   <cc:Work>
    <dc:type rdf:resource="http://purl.org/dc/dcmitype/StillImage"/>
    <dc:date>2022-11-24T19:12:03.566888</dc:date>
    <dc:format>image/svg+xml</dc:format>
    <dc:creator>
     <cc:Agent>
      <dc:title>Matplotlib v3.5.3, https://matplotlib.org/</dc:title>
     </cc:Agent>
    </dc:creator>
   </cc:Work>
  </rdf:RDF>
 </metadata>
 <defs>
  <style type="text/css">*{stroke-linejoin: round; stroke-linecap: butt}</style>
 </defs>
 <g id="figure_1">
  <g id="patch_1">
   <path d="M 0 345.6 
L 460.8 345.6 
L 460.8 0 
L 0 0 
z
" style="fill: #ffffff"/>
  </g>
  <g id="axes_1">
   <g id="patch_2">
    <path d="M 57.6 307.584 
L 414.72 307.584 
L 414.72 41.472 
L 57.6 41.472 
z
" style="fill: #ffffff"/>
   </g>
   <g id="matplotlib.axis_1">
    <g id="xtick_1">
     <g id="line2d_1">
      <path d="M 73.832727 307.584 
L 73.832727 41.472 
" clip-path="url(#p836c2c5f9b)" style="fill: none; stroke: #b0b0b0; stroke-width: 0.8; stroke-linecap: square"/>
     </g>
     <g id="line2d_2">
      <defs>
       <path id="m4580178196" d="M 0 0 
L 0 3.5 
" style="stroke: #000000; stroke-width: 0.8"/>
      </defs>
      <g>
       <use xlink:href="#m4580178196" x="73.832727" y="307.584" style="stroke: #000000; stroke-width: 0.8"/>
      </g>
     </g>
     <g id="text_1">
      <!-- 0 -->
      <g transform="translate(70.651477 322.182437)scale(0.1 -0.1)">
       <defs>
        <path id="DejaVuSans-30" d="M 2034 4250 
Q 1547 4250 1301 3770 
Q 1056 3291 1056 2328 
Q 1056 1369 1301 889 
Q 1547 409 2034 409 
Q 2525 409 2770 889 
Q 3016 1369 3016 2328 
Q 3016 3291 2770 3770 
Q 2525 4250 2034 4250 
z
M 2034 4750 
Q 2819 4750 3233 4129 
Q 3647 3509 3647 2328 
Q 3647 1150 3233 529 
Q 2819 -91 2034 -91 
Q 1250 -91 836 529 
Q 422 1150 422 2328 
Q 422 3509 836 4129 
Q 1250 4750 2034 4750 
z
" transform="scale(0.015625)"/>
       </defs>
       <use xlink:href="#DejaVuSans-30"/>
      </g>
     </g>
    </g>
    <g id="xtick_2">
     <g id="line2d_3">
      <path d="M 137.490481 307.584 
L 137.490481 41.472 
" clip-path="url(#p836c2c5f9b)" style="fill: none; stroke: #b0b0b0; stroke-width: 0.8; stroke-linecap: square"/>
     </g>
     <g id="line2d_4">
      <g>
       <use xlink:href="#m4580178196" x="137.490481" y="307.584" style="stroke: #000000; stroke-width: 0.8"/>
      </g>
     </g>
     <g id="text_2">
      <!-- 50 -->
      <g transform="translate(131.127981 322.182437)scale(0.1 -0.1)">
       <defs>
        <path id="DejaVuSans-35" d="M 691 4666 
L 3169 4666 
L 3169 4134 
L 1269 4134 
L 1269 2991 
Q 1406 3038 1543 3061 
Q 1681 3084 1819 3084 
Q 2600 3084 3056 2656 
Q 3513 2228 3513 1497 
Q 3513 744 3044 326 
Q 2575 -91 1722 -91 
Q 1428 -91 1123 -41 
Q 819 9 494 109 
L 494 744 
Q 775 591 1075 516 
Q 1375 441 1709 441 
Q 2250 441 2565 725 
Q 2881 1009 2881 1497 
Q 2881 1984 2565 2268 
Q 2250 2553 1709 2553 
Q 1456 2553 1204 2497 
Q 953 2441 691 2322 
L 691 4666 
z
" transform="scale(0.015625)"/>
       </defs>
       <use xlink:href="#DejaVuSans-35"/>
       <use xlink:href="#DejaVuSans-30" x="63.623047"/>
      </g>
     </g>
    </g>
    <g id="xtick_3">
     <g id="line2d_5">
      <path d="M 201.148235 307.584 
L 201.148235 41.472 
" clip-path="url(#p836c2c5f9b)" style="fill: none; stroke: #b0b0b0; stroke-width: 0.8; stroke-linecap: square"/>
     </g>
     <g id="line2d_6">
      <g>
       <use xlink:href="#m4580178196" x="201.148235" y="307.584" style="stroke: #000000; stroke-width: 0.8"/>
      </g>
     </g>
     <g id="text_3">
      <!-- 100 -->
      <g transform="translate(191.604485 322.182437)scale(0.1 -0.1)">
       <defs>
        <path id="DejaVuSans-31" d="M 794 531 
L 1825 531 
L 1825 4091 
L 703 3866 
L 703 4441 
L 1819 4666 
L 2450 4666 
L 2450 531 
L 3481 531 
L 3481 0 
L 794 0 
L 794 531 
z
" transform="scale(0.015625)"/>
       </defs>
       <use xlink:href="#DejaVuSans-31"/>
       <use xlink:href="#DejaVuSans-30" x="63.623047"/>
       <use xlink:href="#DejaVuSans-30" x="127.246094"/>
      </g>
     </g>
    </g>
    <g id="xtick_4">
     <g id="line2d_7">
      <path d="M 264.805989 307.584 
L 264.805989 41.472 
" clip-path="url(#p836c2c5f9b)" style="fill: none; stroke: #b0b0b0; stroke-width: 0.8; stroke-linecap: square"/>
     </g>
     <g id="line2d_8">
      <g>
       <use xlink:href="#m4580178196" x="264.805989" y="307.584" style="stroke: #000000; stroke-width: 0.8"/>
      </g>
     </g>
     <g id="text_4">
      <!-- 150 -->
      <g transform="translate(255.262239 322.182437)scale(0.1 -0.1)">
       <use xlink:href="#DejaVuSans-31"/>
       <use xlink:href="#DejaVuSans-35" x="63.623047"/>
       <use xlink:href="#DejaVuSans-30" x="127.246094"/>
      </g>
     </g>
    </g>
    <g id="xtick_5">
     <g id="line2d_9">
      <path d="M 328.463743 307.584 
L 328.463743 41.472 
" clip-path="url(#p836c2c5f9b)" style="fill: none; stroke: #b0b0b0; stroke-width: 0.8; stroke-linecap: square"/>
     </g>
     <g id="line2d_10">
      <g>
       <use xlink:href="#m4580178196" x="328.463743" y="307.584" style="stroke: #000000; stroke-width: 0.8"/>
      </g>
     </g>
     <g id="text_5">
      <!-- 200 -->
      <g transform="translate(318.919993 322.182437)scale(0.1 -0.1)">
       <defs>
        <path id="DejaVuSans-32" d="M 1228 531 
L 3431 531 
L 3431 0 
L 469 0 
L 469 531 
Q 828 903 1448 1529 
Q 2069 2156 2228 2338 
Q 2531 2678 2651 2914 
Q 2772 3150 2772 3378 
Q 2772 3750 2511 3984 
Q 2250 4219 1831 4219 
Q 1534 4219 1204 4116 
Q 875 4013 500 3803 
L 500 4441 
Q 881 4594 1212 4672 
Q 1544 4750 1819 4750 
Q 2544 4750 2975 4387 
Q 3406 4025 3406 3419 
Q 3406 3131 3298 2873 
Q 3191 2616 2906 2266 
Q 2828 2175 2409 1742 
Q 1991 1309 1228 531 
z
" transform="scale(0.015625)"/>
       </defs>
       <use xlink:href="#DejaVuSans-32"/>
       <use xlink:href="#DejaVuSans-30" x="63.623047"/>
       <use xlink:href="#DejaVuSans-30" x="127.246094"/>
      </g>
     </g>
    </g>
    <g id="xtick_6">
     <g id="line2d_11">
      <path d="M 392.121497 307.584 
L 392.121497 41.472 
" clip-path="url(#p836c2c5f9b)" style="fill: none; stroke: #b0b0b0; stroke-width: 0.8; stroke-linecap: square"/>
     </g>
     <g id="line2d_12">
      <g>
       <use xlink:href="#m4580178196" x="392.121497" y="307.584" style="stroke: #000000; stroke-width: 0.8"/>
      </g>
     </g>
     <g id="text_6">
      <!-- 250 -->
      <g transform="translate(382.577747 322.182437)scale(0.1 -0.1)">
       <use xlink:href="#DejaVuSans-32"/>
       <use xlink:href="#DejaVuSans-35" x="63.623047"/>
       <use xlink:href="#DejaVuSans-30" x="127.246094"/>
      </g>
     </g>
    </g>
    <g id="text_7">
     <!-- Input gray level -->
     <g transform="translate(196.89125 335.860562)scale(0.1 -0.1)">
      <defs>
       <path id="DejaVuSans-49" d="M 628 4666 
L 1259 4666 
L 1259 0 
L 628 0 
L 628 4666 
z
" transform="scale(0.015625)"/>
       <path id="DejaVuSans-6e" d="M 3513 2113 
L 3513 0 
L 2938 0 
L 2938 2094 
Q 2938 2591 2744 2837 
Q 2550 3084 2163 3084 
Q 1697 3084 1428 2787 
Q 1159 2491 1159 1978 
L 1159 0 
L 581 0 
L 581 3500 
L 1159 3500 
L 1159 2956 
Q 1366 3272 1645 3428 
Q 1925 3584 2291 3584 
Q 2894 3584 3203 3211 
Q 3513 2838 3513 2113 
z
" transform="scale(0.015625)"/>
       <path id="DejaVuSans-70" d="M 1159 525 
L 1159 -1331 
L 581 -1331 
L 581 3500 
L 1159 3500 
L 1159 2969 
Q 1341 3281 1617 3432 
Q 1894 3584 2278 3584 
Q 2916 3584 3314 3078 
Q 3713 2572 3713 1747 
Q 3713 922 3314 415 
Q 2916 -91 2278 -91 
Q 1894 -91 1617 61 
Q 1341 213 1159 525 
z
M 3116 1747 
Q 3116 2381 2855 2742 
Q 2594 3103 2138 3103 
Q 1681 3103 1420 2742 
Q 1159 2381 1159 1747 
Q 1159 1113 1420 752 
Q 1681 391 2138 391 
Q 2594 391 2855 752 
Q 3116 1113 3116 1747 
z
" transform="scale(0.015625)"/>
       <path id="DejaVuSans-75" d="M 544 1381 
L 544 3500 
L 1119 3500 
L 1119 1403 
Q 1119 906 1312 657 
Q 1506 409 1894 409 
Q 2359 409 2629 706 
Q 2900 1003 2900 1516 
L 2900 3500 
L 3475 3500 
L 3475 0 
L 2900 0 
L 2900 538 
Q 2691 219 2414 64 
Q 2138 -91 1772 -91 
Q 1169 -91 856 284 
Q 544 659 544 1381 
z
M 1991 3584 
L 1991 3584 
z
" transform="scale(0.015625)"/>
       <path id="DejaVuSans-74" d="M 1172 4494 
L 1172 3500 
L 2356 3500 
L 2356 3053 
L 1172 3053 
L 1172 1153 
Q 1172 725 1289 603 
Q 1406 481 1766 481 
L 2356 481 
L 2356 0 
L 1766 0 
Q 1100 0 847 248 
Q 594 497 594 1153 
L 594 3053 
L 172 3053 
L 172 3500 
L 594 3500 
L 594 4494 
L 1172 4494 
z
" transform="scale(0.015625)"/>
       <path id="DejaVuSans-20" transform="scale(0.015625)"/>
       <path id="DejaVuSans-67" d="M 2906 1791 
Q 2906 2416 2648 2759 
Q 2391 3103 1925 3103 
Q 1463 3103 1205 2759 
Q 947 2416 947 1791 
Q 947 1169 1205 825 
Q 1463 481 1925 481 
Q 2391 481 2648 825 
Q 2906 1169 2906 1791 
z
M 3481 434 
Q 3481 -459 3084 -895 
Q 2688 -1331 1869 -1331 
Q 1566 -1331 1297 -1286 
Q 1028 -1241 775 -1147 
L 775 -588 
Q 1028 -725 1275 -790 
Q 1522 -856 1778 -856 
Q 2344 -856 2625 -561 
Q 2906 -266 2906 331 
L 2906 616 
Q 2728 306 2450 153 
Q 2172 0 1784 0 
Q 1141 0 747 490 
Q 353 981 353 1791 
Q 353 2603 747 3093 
Q 1141 3584 1784 3584 
Q 2172 3584 2450 3431 
Q 2728 3278 2906 2969 
L 2906 3500 
L 3481 3500 
L 3481 434 
z
" transform="scale(0.015625)"/>
       <path id="DejaVuSans-72" d="M 2631 2963 
Q 2534 3019 2420 3045 
Q 2306 3072 2169 3072 
Q 1681 3072 1420 2755 
Q 1159 2438 1159 1844 
L 1159 0 
L 581 0 
L 581 3500 
L 1159 3500 
L 1159 2956 
Q 1341 3275 1631 3429 
Q 1922 3584 2338 3584 
Q 2397 3584 2469 3576 
Q 2541 3569 2628 3553 
L 2631 2963 
z
" transform="scale(0.015625)"/>
       <path id="DejaVuSans-61" d="M 2194 1759 
Q 1497 1759 1228 1600 
Q 959 1441 959 1056 
Q 959 750 1161 570 
Q 1363 391 1709 391 
Q 2188 391 2477 730 
Q 2766 1069 2766 1631 
L 2766 1759 
L 2194 1759 
z
M 3341 1997 
L 3341 0 
L 2766 0 
L 2766 531 
Q 2569 213 2275 61 
Q 1981 -91 1556 -91 
Q 1019 -91 701 211 
Q 384 513 384 1019 
Q 384 1609 779 1909 
Q 1175 2209 1959 2209 
L 2766 2209 
L 2766 2266 
Q 2766 2663 2505 2880 
Q 2244 3097 1772 3097 
Q 1472 3097 1187 3025 
Q 903 2953 641 2809 
L 641 3341 
Q 956 3463 1253 3523 
Q 1550 3584 1831 3584 
Q 2591 3584 2966 3190 
Q 3341 2797 3341 1997 
z
" transform="scale(0.015625)"/>
       <path id="DejaVuSans-79" d="M 2059 -325 
Q 1816 -950 1584 -1140 
Q 1353 -1331 966 -1331 
L 506 -1331 
L 506 -850 
L 844 -850 
Q 1081 -850 1212 -737 
Q 1344 -625 1503 -206 
L 1606 56 
L 191 3500 
L 800 3500 
L 1894 763 
L 2988 3500 
L 3597 3500 
L 2059 -325 
z
" transform="scale(0.015625)"/>
       <path id="DejaVuSans-6c" d="M 603 4863 
L 1178 4863 
L 1178 0 
L 603 0 
L 603 4863 
z
" transform="scale(0.015625)"/>
       <path id="DejaVuSans-65" d="M 3597 1894 
L 3597 1613 
L 953 1613 
Q 991 1019 1311 708 
Q 1631 397 2203 397 
Q 2534 397 2845 478 
Q 3156 559 3463 722 
L 3463 178 
Q 3153 47 2828 -22 
Q 2503 -91 2169 -91 
Q 1331 -91 842 396 
Q 353 884 353 1716 
Q 353 2575 817 3079 
Q 1281 3584 2069 3584 
Q 2775 3584 3186 3129 
Q 3597 2675 3597 1894 
z
M 3022 2063 
Q 3016 2534 2758 2815 
Q 2500 3097 2075 3097 
Q 1594 3097 1305 2825 
Q 1016 2553 972 2059 
L 3022 2063 
z
" transform="scale(0.015625)"/>
       <path id="DejaVuSans-76" d="M 191 3500 
L 800 3500 
L 1894 563 
L 2988 3500 
L 3597 3500 
L 2284 0 
L 1503 0 
L 191 3500 
z
" transform="scale(0.015625)"/>
      </defs>
      <use xlink:href="#DejaVuSans-49"/>
      <use xlink:href="#DejaVuSans-6e" x="29.492188"/>
      <use xlink:href="#DejaVuSans-70" x="92.871094"/>
      <use xlink:href="#DejaVuSans-75" x="156.347656"/>
      <use xlink:href="#DejaVuSans-74" x="219.726562"/>
      <use xlink:href="#DejaVuSans-20" x="258.935547"/>
      <use xlink:href="#DejaVuSans-67" x="290.722656"/>
      <use xlink:href="#DejaVuSans-72" x="354.199219"/>
      <use xlink:href="#DejaVuSans-61" x="395.3125"/>
      <use xlink:href="#DejaVuSans-79" x="456.591797"/>
      <use xlink:href="#DejaVuSans-20" x="515.771484"/>
      <use xlink:href="#DejaVuSans-6c" x="547.558594"/>
      <use xlink:href="#DejaVuSans-65" x="575.341797"/>
      <use xlink:href="#DejaVuSans-76" x="636.865234"/>
      <use xlink:href="#DejaVuSans-65" x="696.044922"/>
      <use xlink:href="#DejaVuSans-6c" x="757.568359"/>
     </g>
    </g>
   </g>
   <g id="matplotlib.axis_2">
    <g id="ytick_1">
     <g id="line2d_13">
      <path d="M 57.6 283.753664 
L 414.72 283.753664 
" clip-path="url(#p836c2c5f9b)" style="fill: none; stroke: #b0b0b0; stroke-width: 0.8; stroke-linecap: square"/>
     </g>
     <g id="line2d_14">
      <defs>
       <path id="m39dc3fa54d" d="M 0 0 
L -3.5 0 
" style="stroke: #000000; stroke-width: 0.8"/>
      </defs>
      <g>
       <use xlink:href="#m39dc3fa54d" x="57.6" y="283.753664" style="stroke: #000000; stroke-width: 0.8"/>
      </g>
     </g>
     <g id="text_8">
      <!-- 0.1 -->
      <g transform="translate(34.696875 287.552883)scale(0.1 -0.1)">
       <defs>
        <path id="DejaVuSans-2e" d="M 684 794 
L 1344 794 
L 1344 0 
L 684 0 
L 684 794 
z
" transform="scale(0.015625)"/>
       </defs>
       <use xlink:href="#DejaVuSans-30"/>
       <use xlink:href="#DejaVuSans-2e" x="63.623047"/>
       <use xlink:href="#DejaVuSans-31" x="95.410156"/>
      </g>
     </g>
    </g>
    <g id="ytick_2">
     <g id="line2d_15">
      <path d="M 57.6 253.335046 
L 414.72 253.335046 
" clip-path="url(#p836c2c5f9b)" style="fill: none; stroke: #b0b0b0; stroke-width: 0.8; stroke-linecap: square"/>
     </g>
     <g id="line2d_16">
      <g>
       <use xlink:href="#m39dc3fa54d" x="57.6" y="253.335046" style="stroke: #000000; stroke-width: 0.8"/>
      </g>
     </g>
     <g id="text_9">
      <!-- 0.2 -->
      <g transform="translate(34.696875 257.134265)scale(0.1 -0.1)">
       <use xlink:href="#DejaVuSans-30"/>
       <use xlink:href="#DejaVuSans-2e" x="63.623047"/>
       <use xlink:href="#DejaVuSans-32" x="95.410156"/>
      </g>
     </g>
    </g>
    <g id="ytick_3">
     <g id="line2d_17">
      <path d="M 57.6 222.916428 
L 414.72 222.916428 
" clip-path="url(#p836c2c5f9b)" style="fill: none; stroke: #b0b0b0; stroke-width: 0.8; stroke-linecap: square"/>
     </g>
     <g id="line2d_18">
      <g>
       <use xlink:href="#m39dc3fa54d" x="57.6" y="222.916428" style="stroke: #000000; stroke-width: 0.8"/>
      </g>
     </g>
     <g id="text_10">
      <!-- 0.3 -->
      <g transform="translate(34.696875 226.715646)scale(0.1 -0.1)">
       <defs>
        <path id="DejaVuSans-33" d="M 2597 2516 
Q 3050 2419 3304 2112 
Q 3559 1806 3559 1356 
Q 3559 666 3084 287 
Q 2609 -91 1734 -91 
Q 1441 -91 1130 -33 
Q 819 25 488 141 
L 488 750 
Q 750 597 1062 519 
Q 1375 441 1716 441 
Q 2309 441 2620 675 
Q 2931 909 2931 1356 
Q 2931 1769 2642 2001 
Q 2353 2234 1838 2234 
L 1294 2234 
L 1294 2753 
L 1863 2753 
Q 2328 2753 2575 2939 
Q 2822 3125 2822 3475 
Q 2822 3834 2567 4026 
Q 2313 4219 1838 4219 
Q 1578 4219 1281 4162 
Q 984 4106 628 3988 
L 628 4550 
Q 988 4650 1302 4700 
Q 1616 4750 1894 4750 
Q 2613 4750 3031 4423 
Q 3450 4097 3450 3541 
Q 3450 3153 3228 2886 
Q 3006 2619 2597 2516 
z
" transform="scale(0.015625)"/>
       </defs>
       <use xlink:href="#DejaVuSans-30"/>
       <use xlink:href="#DejaVuSans-2e" x="63.623047"/>
       <use xlink:href="#DejaVuSans-33" x="95.410156"/>
      </g>
     </g>
    </g>
    <g id="ytick_4">
     <g id="line2d_19">
      <path d="M 57.6 192.497809 
L 414.72 192.497809 
" clip-path="url(#p836c2c5f9b)" style="fill: none; stroke: #b0b0b0; stroke-width: 0.8; stroke-linecap: square"/>
     </g>
     <g id="line2d_20">
      <g>
       <use xlink:href="#m39dc3fa54d" x="57.6" y="192.497809" style="stroke: #000000; stroke-width: 0.8"/>
      </g>
     </g>
     <g id="text_11">
      <!-- 0.4 -->
      <g transform="translate(34.696875 196.297028)scale(0.1 -0.1)">
       <defs>
        <path id="DejaVuSans-34" d="M 2419 4116 
L 825 1625 
L 2419 1625 
L 2419 4116 
z
M 2253 4666 
L 3047 4666 
L 3047 1625 
L 3713 1625 
L 3713 1100 
L 3047 1100 
L 3047 0 
L 2419 0 
L 2419 1100 
L 313 1100 
L 313 1709 
L 2253 4666 
z
" transform="scale(0.015625)"/>
       </defs>
       <use xlink:href="#DejaVuSans-30"/>
       <use xlink:href="#DejaVuSans-2e" x="63.623047"/>
       <use xlink:href="#DejaVuSans-34" x="95.410156"/>
      </g>
     </g>
    </g>
    <g id="ytick_5">
     <g id="line2d_21">
      <path d="M 57.6 162.079191 
L 414.72 162.079191 
" clip-path="url(#p836c2c5f9b)" style="fill: none; stroke: #b0b0b0; stroke-width: 0.8; stroke-linecap: square"/>
     </g>
     <g id="line2d_22">
      <g>
       <use xlink:href="#m39dc3fa54d" x="57.6" y="162.079191" style="stroke: #000000; stroke-width: 0.8"/>
      </g>
     </g>
     <g id="text_12">
      <!-- 0.5 -->
      <g transform="translate(34.696875 165.87841)scale(0.1 -0.1)">
       <use xlink:href="#DejaVuSans-30"/>
       <use xlink:href="#DejaVuSans-2e" x="63.623047"/>
       <use xlink:href="#DejaVuSans-35" x="95.410156"/>
      </g>
     </g>
    </g>
    <g id="ytick_6">
     <g id="line2d_23">
      <path d="M 57.6 131.660573 
L 414.72 131.660573 
" clip-path="url(#p836c2c5f9b)" style="fill: none; stroke: #b0b0b0; stroke-width: 0.8; stroke-linecap: square"/>
     </g>
     <g id="line2d_24">
      <g>
       <use xlink:href="#m39dc3fa54d" x="57.6" y="131.660573" style="stroke: #000000; stroke-width: 0.8"/>
      </g>
     </g>
     <g id="text_13">
      <!-- 0.6 -->
      <g transform="translate(34.696875 135.459791)scale(0.1 -0.1)">
       <defs>
        <path id="DejaVuSans-36" d="M 2113 2584 
Q 1688 2584 1439 2293 
Q 1191 2003 1191 1497 
Q 1191 994 1439 701 
Q 1688 409 2113 409 
Q 2538 409 2786 701 
Q 3034 994 3034 1497 
Q 3034 2003 2786 2293 
Q 2538 2584 2113 2584 
z
M 3366 4563 
L 3366 3988 
Q 3128 4100 2886 4159 
Q 2644 4219 2406 4219 
Q 1781 4219 1451 3797 
Q 1122 3375 1075 2522 
Q 1259 2794 1537 2939 
Q 1816 3084 2150 3084 
Q 2853 3084 3261 2657 
Q 3669 2231 3669 1497 
Q 3669 778 3244 343 
Q 2819 -91 2113 -91 
Q 1303 -91 875 529 
Q 447 1150 447 2328 
Q 447 3434 972 4092 
Q 1497 4750 2381 4750 
Q 2619 4750 2861 4703 
Q 3103 4656 3366 4563 
z
" transform="scale(0.015625)"/>
       </defs>
       <use xlink:href="#DejaVuSans-30"/>
       <use xlink:href="#DejaVuSans-2e" x="63.623047"/>
       <use xlink:href="#DejaVuSans-36" x="95.410156"/>
      </g>
     </g>
    </g>
    <g id="ytick_7">
     <g id="line2d_25">
      <path d="M 57.6 101.241954 
L 414.72 101.241954 
" clip-path="url(#p836c2c5f9b)" style="fill: none; stroke: #b0b0b0; stroke-width: 0.8; stroke-linecap: square"/>
     </g>
     <g id="line2d_26">
      <g>
       <use xlink:href="#m39dc3fa54d" x="57.6" y="101.241954" style="stroke: #000000; stroke-width: 0.8"/>
      </g>
     </g>
     <g id="text_14">
      <!-- 0.7 -->
      <g transform="translate(34.696875 105.041173)scale(0.1 -0.1)">
       <defs>
        <path id="DejaVuSans-37" d="M 525 4666 
L 3525 4666 
L 3525 4397 
L 1831 0 
L 1172 0 
L 2766 4134 
L 525 4134 
L 525 4666 
z
" transform="scale(0.015625)"/>
       </defs>
       <use xlink:href="#DejaVuSans-30"/>
       <use xlink:href="#DejaVuSans-2e" x="63.623047"/>
       <use xlink:href="#DejaVuSans-37" x="95.410156"/>
      </g>
     </g>
    </g>
    <g id="ytick_8">
     <g id="line2d_27">
      <path d="M 57.6 70.823336 
L 414.72 70.823336 
" clip-path="url(#p836c2c5f9b)" style="fill: none; stroke: #b0b0b0; stroke-width: 0.8; stroke-linecap: square"/>
     </g>
     <g id="line2d_28">
      <g>
       <use xlink:href="#m39dc3fa54d" x="57.6" y="70.823336" style="stroke: #000000; stroke-width: 0.8"/>
      </g>
     </g>
     <g id="text_15">
      <!-- 0.8 -->
      <g transform="translate(34.696875 74.622555)scale(0.1 -0.1)">
       <defs>
        <path id="DejaVuSans-38" d="M 2034 2216 
Q 1584 2216 1326 1975 
Q 1069 1734 1069 1313 
Q 1069 891 1326 650 
Q 1584 409 2034 409 
Q 2484 409 2743 651 
Q 3003 894 3003 1313 
Q 3003 1734 2745 1975 
Q 2488 2216 2034 2216 
z
M 1403 2484 
Q 997 2584 770 2862 
Q 544 3141 544 3541 
Q 544 4100 942 4425 
Q 1341 4750 2034 4750 
Q 2731 4750 3128 4425 
Q 3525 4100 3525 3541 
Q 3525 3141 3298 2862 
Q 3072 2584 2669 2484 
Q 3125 2378 3379 2068 
Q 3634 1759 3634 1313 
Q 3634 634 3220 271 
Q 2806 -91 2034 -91 
Q 1263 -91 848 271 
Q 434 634 434 1313 
Q 434 1759 690 2068 
Q 947 2378 1403 2484 
z
M 1172 3481 
Q 1172 3119 1398 2916 
Q 1625 2713 2034 2713 
Q 2441 2713 2670 2916 
Q 2900 3119 2900 3481 
Q 2900 3844 2670 4047 
Q 2441 4250 2034 4250 
Q 1625 4250 1398 4047 
Q 1172 3844 1172 3481 
z
" transform="scale(0.015625)"/>
       </defs>
       <use xlink:href="#DejaVuSans-30"/>
       <use xlink:href="#DejaVuSans-2e" x="63.623047"/>
       <use xlink:href="#DejaVuSans-38" x="95.410156"/>
      </g>
     </g>
    </g>
    <g id="text_16">
     <!-- Output intensity -->
     <g transform="translate(28.617187 215.161594)rotate(-90)scale(0.1 -0.1)">
      <defs>
       <path id="DejaVuSans-4f" d="M 2522 4238 
Q 1834 4238 1429 3725 
Q 1025 3213 1025 2328 
Q 1025 1447 1429 934 
Q 1834 422 2522 422 
Q 3209 422 3611 934 
Q 4013 1447 4013 2328 
Q 4013 3213 3611 3725 
Q 3209 4238 2522 4238 
z
M 2522 4750 
Q 3503 4750 4090 4092 
Q 4678 3434 4678 2328 
Q 4678 1225 4090 567 
Q 3503 -91 2522 -91 
Q 1538 -91 948 565 
Q 359 1222 359 2328 
Q 359 3434 948 4092 
Q 1538 4750 2522 4750 
z
" transform="scale(0.015625)"/>
       <path id="DejaVuSans-69" d="M 603 3500 
L 1178 3500 
L 1178 0 
L 603 0 
L 603 3500 
z
M 603 4863 
L 1178 4863 
L 1178 4134 
L 603 4134 
L 603 4863 
z
" transform="scale(0.015625)"/>
       <path id="DejaVuSans-73" d="M 2834 3397 
L 2834 2853 
Q 2591 2978 2328 3040 
Q 2066 3103 1784 3103 
Q 1356 3103 1142 2972 
Q 928 2841 928 2578 
Q 928 2378 1081 2264 
Q 1234 2150 1697 2047 
L 1894 2003 
Q 2506 1872 2764 1633 
Q 3022 1394 3022 966 
Q 3022 478 2636 193 
Q 2250 -91 1575 -91 
Q 1294 -91 989 -36 
Q 684 19 347 128 
L 347 722 
Q 666 556 975 473 
Q 1284 391 1588 391 
Q 1994 391 2212 530 
Q 2431 669 2431 922 
Q 2431 1156 2273 1281 
Q 2116 1406 1581 1522 
L 1381 1569 
Q 847 1681 609 1914 
Q 372 2147 372 2553 
Q 372 3047 722 3315 
Q 1072 3584 1716 3584 
Q 2034 3584 2315 3537 
Q 2597 3491 2834 3397 
z
" transform="scale(0.015625)"/>
      </defs>
      <use xlink:href="#DejaVuSans-4f"/>
      <use xlink:href="#DejaVuSans-75" x="78.710938"/>
      <use xlink:href="#DejaVuSans-74" x="142.089844"/>
      <use xlink:href="#DejaVuSans-70" x="181.298828"/>
      <use xlink:href="#DejaVuSans-75" x="244.775391"/>
      <use xlink:href="#DejaVuSans-74" x="308.154297"/>
      <use xlink:href="#DejaVuSans-20" x="347.363281"/>
      <use xlink:href="#DejaVuSans-69" x="379.150391"/>
      <use xlink:href="#DejaVuSans-6e" x="406.933594"/>
      <use xlink:href="#DejaVuSans-74" x="470.3125"/>
      <use xlink:href="#DejaVuSans-65" x="509.521484"/>
      <use xlink:href="#DejaVuSans-6e" x="571.044922"/>
      <use xlink:href="#DejaVuSans-73" x="634.423828"/>
      <use xlink:href="#DejaVuSans-69" x="686.523438"/>
      <use xlink:href="#DejaVuSans-74" x="714.306641"/>
      <use xlink:href="#DejaVuSans-79" x="753.515625"/>
     </g>
    </g>
   </g>
   <g id="line2d_29">
    <path d="M 73.832727 295.402552 
L 78.925348 295.430634 
L 82.744813 295.384834 
L 85.291123 295.380542 
L 87.837433 295.3752 
L 92.930053 295.071665 
L 96.749519 294.942081 
L 98.022674 294.770805 
L 99.295829 294.815888 
L 106.934759 294.17743 
L 108.207914 293.940502 
L 109.48107 293.954263 
L 110.754225 293.666728 
L 114.57369 293.338819 
L 117.12 292.994729 
L 118.393155 292.629271 
L 119.66631 292.439499 
L 120.939465 292.460852 
L 124.75893 291.812865 
L 126.032086 291.187149 
L 127.305241 291.346768 
L 129.851551 290.485776 
L 131.124706 290.436516 
L 134.944171 289.724282 
L 137.490481 289.058166 
L 138.763636 288.477655 
L 140.036791 288.071843 
L 141.309947 287.829903 
L 142.583102 287.713771 
L 143.856257 286.984075 
L 145.129412 286.920979 
L 146.402567 286.516938 
L 147.675722 286.416509 
L 148.948877 285.640557 
L 150.222032 285.663286 
L 155.314652 284.066594 
L 156.587807 283.135654 
L 159.134118 282.381961 
L 161.680428 282.339754 
L 162.953583 281.09185 
L 164.226738 280.493904 
L 165.499893 280.939827 
L 166.773048 279.852415 
L 168.046203 279.991115 
L 169.319358 279.470452 
L 170.592513 279.164982 
L 171.865668 277.940265 
L 173.138824 277.436657 
L 174.411979 277.093345 
L 175.685134 277.15038 
L 176.958289 276.942068 
L 178.231444 276.136683 
L 179.504599 274.972655 
L 180.777754 275.122114 
L 182.050909 273.494851 
L 183.324064 273.909603 
L 184.597219 273.658469 
L 185.870374 272.926109 
L 187.143529 271.627642 
L 188.416684 270.776511 
L 189.68984 270.11417 
L 190.962995 269.686766 
L 192.23615 269.931162 
L 193.509305 269.567533 
L 194.78246 267.815051 
L 196.055615 267.975076 
L 197.32877 266.257206 
L 198.601925 266.660877 
L 201.148235 264.257478 
L 202.42139 265.20979 
L 203.694545 264.228121 
L 204.967701 263.887087 
L 206.240856 263.005208 
L 207.514011 262.381819 
L 208.787166 261.465675 
L 210.060321 260.72522 
L 211.333476 260.640236 
L 212.606631 257.790038 
L 213.879786 258.723254 
L 215.152941 256.436146 
L 216.426096 257.063827 
L 217.699251 254.83463 
L 220.245561 253.595162 
L 221.518717 252.405159 
L 222.791872 253.33285 
L 224.065027 252.980308 
L 225.338182 252.123548 
L 226.611337 251.632682 
L 227.884492 250.113067 
L 229.157647 249.569333 
L 230.430802 246.712928 
L 231.703957 246.209725 
L 232.977112 247.567227 
L 234.250267 244.108656 
L 235.523422 244.840812 
L 236.796578 241.546725 
L 238.069733 243.15319 
L 239.342888 240.35291 
L 240.616043 242.286681 
L 241.889198 238.2321 
L 243.162353 237.210803 
L 244.435508 236.938513 
L 245.708663 238.265601 
L 246.981818 237.02891 
L 248.254973 236.012901 
L 249.528128 235.387401 
L 252.074439 233.089043 
L 253.347594 232.052572 
L 254.620749 231.915458 
L 255.893904 227.522095 
L 257.167059 229.628258 
L 258.440214 229.017698 
L 259.713369 223.79901 
L 260.986524 223.471179 
L 262.259679 222.351825 
L 263.532834 224.173138 
L 264.805989 223.475917 
L 267.352299 221.89156 
L 268.625455 216.856671 
L 269.89861 215.121352 
L 271.171765 217.669851 
L 272.44492 215.720822 
L 273.718075 216.060736 
L 274.99123 211.395672 
L 276.264385 209.241134 
L 277.53754 210.11792 
L 278.810695 209.569844 
L 281.357005 209.907493 
L 282.63016 207.747731 
L 283.903316 203.218449 
L 285.176471 204.188358 
L 286.449626 203.900248 
L 287.722781 203.316125 
L 288.995936 198.382236 
L 290.269091 201.869984 
L 291.542246 195.596083 
L 292.815401 198.0339 
L 294.088556 195.214677 
L 295.361711 193.102773 
L 296.634866 190.308276 
L 297.908021 193.040171 
L 299.181176 192.066688 
L 300.454332 192.154802 
L 301.727487 185.190783 
L 303.000642 183.636369 
L 304.273797 186.398885 
L 305.546952 186.45027 
L 308.093262 182.476237 
L 309.366417 176.259923 
L 310.639572 178.048805 
L 311.912727 178.231746 
L 313.185882 176.6062 
L 314.459037 170.010272 
L 315.732193 168.995464 
L 317.005348 174.264414 
L 318.278503 166.084376 
L 319.551658 164.877169 
L 320.824813 167.799989 
L 322.097968 166.511952 
L 323.371123 164.903563 
L 324.644278 163.734478 
L 325.917433 161.941824 
L 327.190588 161.526705 
L 328.463743 161.792516 
L 329.736898 161.589443 
L 331.010053 153.877702 
L 332.283209 151.199009 
L 333.556364 148.065608 
L 334.829519 153.954756 
L 336.102674 148.553555 
L 337.375829 144.702827 
L 338.648984 142.598791 
L 339.922139 147.706785 
L 341.195294 144.170922 
L 342.468449 143.845337 
L 343.741604 138.774895 
L 345.014759 134.3991 
L 346.287914 135.961007 
L 347.56107 137.170216 
L 348.834225 130.117898 
L 350.10738 130.846996 
L 351.380535 125.615517 
L 352.65369 122.98764 
L 353.926845 123.928636 
L 355.2 121.060503 
L 356.473155 118.903691 
L 357.74631 117.463496 
L 359.019465 115.041299 
L 361.565775 120.422883 
L 362.83893 115.578135 
L 364.112086 116.740159 
L 365.385241 112.711948 
L 366.658396 106.252824 
L 367.931551 107.415611 
L 369.204706 106.968085 
L 370.477861 98.192885 
L 371.751016 94.929653 
L 373.024171 98.975009 
L 374.297326 91.633457 
L 375.570481 91.446384 
L 376.843636 96.475115 
L 378.116791 90.272912 
L 379.389947 87.541923 
L 380.663102 91.070808 
L 381.936257 90.827982 
L 383.209412 77.970604 
L 384.482567 85.684688 
L 385.755722 79.570371 
L 387.028877 81.306054 
L 388.302032 69.418798 
L 389.575187 76.722616 
L 390.848342 71.363367 
L 392.121497 64.269639 
L 393.394652 72.852633 
L 394.667807 62.521789 
L 395.940963 57.203312 
L 397.214118 64.101972 
L 398.487273 53.568 
L 398.487273 53.568 
" clip-path="url(#p836c2c5f9b)" style="fill: none; stroke: #ff0000; stroke-width: 1.5; stroke-linecap: square"/>
   </g>
   <g id="line2d_30">
    <path d="M 73.832727 295.288429 
L 84.017968 295.176407 
L 92.930053 294.838885 
L 100.568984 294.342653 
L 108.207914 293.640071 
L 115.846845 292.719829 
L 123.485775 291.572483 
L 131.124706 290.189875 
L 138.763636 288.564791 
L 146.402567 286.690742 
L 154.041497 284.561824 
L 161.680428 282.1726 
L 169.319358 279.518034 
L 176.958289 276.593423 
L 184.597219 273.394352 
L 192.23615 269.91666 
L 199.87508 266.156406 
L 207.514011 262.109843 
L 215.152941 257.773403 
L 222.791872 253.143674 
L 230.430802 248.217385 
L 238.069733 242.991398 
L 245.708663 237.462692 
L 253.347594 231.628356 
L 260.986524 225.485577 
L 268.625455 219.031639 
L 276.264385 212.26391 
L 283.903316 205.179836 
L 291.542246 197.776944 
L 299.181176 190.052824 
L 306.820107 182.005138 
L 314.459037 173.631606 
L 322.097968 164.930007 
L 329.736898 155.898176 
L 337.375829 146.534 
L 345.014759 136.835413 
L 352.65369 126.800399 
L 360.29262 116.426985 
L 367.931551 105.713238 
L 375.570481 94.657269 
L 383.209412 83.257225 
L 390.848342 71.511291 
L 398.487273 59.417686 
L 398.487273 59.417686 
" clip-path="url(#p836c2c5f9b)" style="fill: none; stroke: #000000; stroke-width: 1.5; stroke-linecap: square"/>
   </g>
   <g id="line2d_31">
    <path d="M 73.832727 295.481999 
L 84.017968 295.43516 
L 94.203209 295.18118 
L 101.842139 294.90772 
L 103.115294 294.756345 
L 106.934759 294.595234 
L 118.393155 293.585493 
L 119.66631 293.499122 
L 120.939465 293.251789 
L 122.21262 293.240657 
L 123.485775 292.980579 
L 124.75893 292.928527 
L 126.032086 292.594013 
L 127.305241 292.494283 
L 128.578396 292.129001 
L 129.851551 292.103647 
L 131.124706 291.768621 
L 136.217326 291.056966 
L 138.763636 290.528813 
L 140.036791 290.623917 
L 142.583102 289.940008 
L 143.856257 289.883722 
L 146.402567 289.062028 
L 147.675722 289.158053 
L 150.222032 288.606752 
L 151.495187 288.098346 
L 152.768342 288.176733 
L 154.041497 287.897964 
L 155.314652 287.241005 
L 157.860963 287.053047 
L 159.134118 286.829902 
L 160.407273 286.159754 
L 161.680428 286.282069 
L 162.953583 285.719115 
L 164.226738 285.377071 
L 168.046203 284.812892 
L 169.319358 283.972134 
L 170.592513 283.862912 
L 171.865668 283.87348 
L 174.411979 283.223473 
L 175.685134 282.170777 
L 176.958289 282.507444 
L 178.231444 281.470403 
L 179.504599 281.778322 
L 180.777754 280.660183 
L 182.050909 280.705529 
L 183.324064 279.963863 
L 184.597219 279.790669 
L 185.870374 278.996193 
L 187.143529 279.382878 
L 189.68984 278.784025 
L 190.962995 278.355417 
L 192.23615 277.088555 
L 193.509305 277.375954 
L 194.78246 277.228285 
L 196.055615 275.741329 
L 197.32877 276.34328 
L 198.601925 274.840194 
L 199.87508 275.411398 
L 201.148235 275.06325 
L 202.42139 274.41931 
L 203.694545 273.217563 
L 204.967701 273.643957 
L 206.240856 272.670977 
L 207.514011 272.470312 
L 208.787166 271.160368 
L 210.060321 270.746057 
L 211.333476 271.426305 
L 213.879786 269.117693 
L 215.152941 269.933089 
L 216.426096 268.000883 
L 217.699251 268.818782 
L 220.245561 267.886559 
L 221.518717 266.974737 
L 222.791872 265.480815 
L 224.065027 265.767101 
L 225.338182 265.143673 
L 226.611337 265.19101 
L 227.884492 263.01987 
L 229.157647 263.239822 
L 230.430802 263.664434 
L 231.703957 262.964394 
L 234.250267 261.839571 
L 235.523422 259.270473 
L 236.796578 258.752212 
L 238.069733 258.031378 
L 239.342888 259.443764 
L 240.616043 258.932937 
L 241.889198 257.097105 
L 243.162353 256.602053 
L 244.435508 257.118872 
L 245.708663 254.76905 
L 246.981818 253.446013 
L 248.254973 252.847264 
L 249.528128 254.334472 
L 250.801283 251.653708 
L 253.347594 250.107326 
L 254.620749 251.474269 
L 255.893904 250.372468 
L 257.167059 249.523452 
L 258.440214 249.326381 
L 259.713369 246.739645 
L 260.986524 248.19506 
L 262.259679 247.261122 
L 263.532834 243.860267 
L 264.805989 245.670254 
L 266.079144 244.23469 
L 267.352299 244.16093 
L 268.625455 243.344264 
L 269.89861 241.306653 
L 271.171765 241.953051 
L 272.44492 241.128862 
L 273.718075 239.317129 
L 274.99123 239.836541 
L 276.264385 236.644052 
L 278.810695 234.903867 
L 280.08385 233.319327 
L 281.357005 235.344409 
L 282.63016 231.906808 
L 283.903316 234.482092 
L 285.176471 233.342565 
L 286.449626 229.261654 
L 287.722781 229.762827 
L 288.995936 230.89469 
L 291.542246 229.173955 
L 292.815401 225.05889 
L 294.088556 227.073404 
L 295.361711 226.207285 
L 296.634866 224.285364 
L 297.908021 221.180204 
L 299.181176 223.94612 
L 300.454332 223.030087 
L 301.727487 221.84958 
L 303.000642 219.856157 
L 304.273797 216.237883 
L 305.546952 218.707956 
L 306.820107 216.972516 
L 308.093262 214.31678 
L 309.366417 216.07017 
L 310.639572 215.191633 
L 311.912727 214.143333 
L 313.185882 209.314178 
L 314.459037 210.470214 
L 315.732193 210.483203 
L 317.005348 209.625773 
L 318.278503 205.782304 
L 319.551658 208.447345 
L 320.824813 203.313628 
L 322.097968 201.765812 
L 323.371123 200.479046 
L 324.644278 200.985543 
L 325.917433 198.18213 
L 327.190588 198.801704 
L 328.463743 200.427001 
L 329.736898 200.21002 
L 331.010053 197.019209 
L 332.283209 198.503113 
L 333.556364 194.357443 
L 334.829519 192.884628 
L 336.102674 194.929865 
L 337.375829 191.926991 
L 338.648984 191.793648 
L 339.922139 189.540437 
L 341.195294 184.763134 
L 342.468449 184.890922 
L 343.741604 185.219635 
L 345.014759 186.667809 
L 346.287914 179.889612 
L 347.56107 180.616655 
L 348.834225 178.580448 
L 350.10738 178.216904 
L 351.380535 181.142045 
L 352.65369 179.207485 
L 356.473155 176.30648 
L 357.74631 174.967476 
L 359.019465 174.091687 
L 360.29262 172.506182 
L 361.565775 171.512519 
L 362.83893 163.568363 
L 364.112086 168.696571 
L 365.385241 161.198378 
L 366.658396 166.520091 
L 367.931551 165.140806 
L 369.204706 157.381266 
L 370.477861 162.611573 
L 371.751016 159.600047 
L 373.024171 159.753442 
L 374.297326 157.674822 
L 375.570481 157.175833 
L 376.843636 151.252408 
L 378.116791 154.797976 
L 379.389947 153.189738 
L 380.663102 146.214455 
L 381.936257 150.68205 
L 383.209412 147.882596 
L 384.482567 147.854731 
L 385.755722 146.650704 
L 387.028877 140.291467 
L 388.302032 140.221472 
L 389.575187 142.311863 
L 390.848342 134.113638 
L 392.121497 137.732975 
L 393.394652 135.059504 
L 394.667807 131.643952 
L 395.940963 132.562599 
L 397.214118 126.050265 
L 398.487273 130.977361 
L 398.487273 130.977361 
" clip-path="url(#p836c2c5f9b)" style="fill: none; stroke: #008000; stroke-width: 1.5; stroke-linecap: square"/>
   </g>
   <g id="line2d_32">
    <path d="M 73.832727 295.296969 
L 85.291123 295.202014 
L 95.476364 294.904507 
L 105.661604 294.369055 
L 114.57369 293.687371 
L 123.485775 292.794247 
L 132.397861 291.679737 
L 141.309947 290.335193 
L 150.222032 288.752938 
L 159.134118 286.92604 
L 168.046203 284.848165 
L 176.958289 282.513474 
L 185.870374 279.916536 
L 194.78246 277.052273 
L 202.42139 274.380792 
L 210.060321 271.506543 
L 217.699251 268.426799 
L 225.338182 265.138952 
L 232.977112 261.640496 
L 240.616043 257.92902 
L 248.254973 254.002204 
L 255.893904 249.857803 
L 263.532834 245.493651 
L 271.171765 240.907649 
L 278.810695 236.097762 
L 287.722781 230.20063 
L 296.634866 223.993037 
L 305.546952 217.472041 
L 314.459037 210.634783 
L 323.371123 203.478494 
L 332.283209 196.000477 
L 341.195294 188.198111 
L 350.10738 180.068843 
L 359.019465 171.610185 
L 367.931551 162.81971 
L 376.843636 153.695048 
L 385.755722 144.233883 
L 394.667807 134.433954 
L 398.487273 130.12973 
L 398.487273 130.12973 
" clip-path="url(#p836c2c5f9b)" style="fill: none; stroke: #000000; stroke-width: 1.5; stroke-linecap: square"/>
   </g>
   <g id="line2d_33">
    <path d="M 73.832727 295.125422 
L 80.198503 295.189528 
L 81.471658 295.075159 
L 90.383743 294.964325 
L 96.749519 294.616125 
L 99.295829 294.566278 
L 103.115294 294.339709 
L 104.388449 294.306453 
L 106.934759 294.031954 
L 109.48107 293.840275 
L 112.02738 293.667133 
L 114.57369 293.273705 
L 117.12 293.117866 
L 123.485775 292.309533 
L 124.75893 291.966397 
L 126.032086 291.84224 
L 127.305241 291.538153 
L 128.578396 291.472384 
L 131.124706 290.968746 
L 136.217326 290.292783 
L 137.490481 289.83011 
L 138.763636 289.777352 
L 141.309947 289.375621 
L 142.583102 288.683869 
L 143.856257 288.720556 
L 146.402567 288.070259 
L 147.675722 287.463333 
L 148.948877 287.706211 
L 150.222032 287.05875 
L 151.495187 287.11687 
L 152.768342 286.329836 
L 154.041497 285.927095 
L 155.314652 285.959891 
L 156.587807 285.822277 
L 157.860963 285.571097 
L 159.134118 284.971181 
L 160.407273 284.762466 
L 161.680428 284.015327 
L 162.953583 284.146717 
L 164.226738 283.764503 
L 165.499893 283.174139 
L 166.773048 283.236254 
L 168.046203 282.240772 
L 169.319358 282.373083 
L 170.592513 281.721434 
L 173.138824 281.296904 
L 174.411979 280.77969 
L 175.685134 280.50626 
L 176.958289 279.459921 
L 178.231444 279.694867 
L 179.504599 278.845004 
L 180.777754 278.812104 
L 182.050909 278.434554 
L 183.324064 277.892818 
L 184.597219 277.011749 
L 185.870374 276.693493 
L 187.143529 275.86631 
L 188.416684 275.69345 
L 189.68984 275.908523 
L 190.962995 274.883275 
L 192.23615 274.743225 
L 193.509305 273.550717 
L 194.78246 274.16054 
L 196.055615 273.297829 
L 197.32877 272.878735 
L 198.601925 272.315536 
L 199.87508 270.816535 
L 201.148235 271.6833 
L 202.42139 269.744203 
L 203.694545 269.802902 
L 204.967701 268.677381 
L 206.240856 268.402243 
L 207.514011 267.549855 
L 208.787166 267.99772 
L 210.060321 267.65197 
L 211.333476 265.91226 
L 212.606631 266.591283 
L 213.879786 265.784761 
L 216.426096 264.56066 
L 218.972406 262.65216 
L 220.245561 262.416234 
L 221.518717 262.579915 
L 222.791872 261.803768 
L 224.065027 259.840757 
L 225.338182 258.989661 
L 226.611337 258.352286 
L 227.884492 258.893101 
L 229.157647 257.602176 
L 230.430802 257.804728 
L 232.977112 254.816469 
L 234.250267 255.281162 
L 235.523422 254.847541 
L 236.796578 254.047332 
L 238.069733 253.528871 
L 239.342888 253.213585 
L 240.616043 250.63129 
L 241.889198 251.806821 
L 243.162353 250.908434 
L 244.435508 250.543761 
L 245.708663 248.326213 
L 246.981818 248.692727 
L 248.254973 247.516988 
L 249.528128 245.232081 
L 250.801283 246.358894 
L 252.074439 245.49553 
L 253.347594 244.769794 
L 254.620749 242.272563 
L 255.893904 243.736362 
L 257.167059 240.868146 
L 258.440214 239.46612 
L 259.713369 240.846312 
L 260.986524 240.117353 
L 262.259679 239.016607 
L 263.532834 237.764018 
L 264.805989 234.596616 
L 266.079144 234.159713 
L 267.352299 233.053709 
L 268.625455 234.604474 
L 269.89861 234.137835 
L 271.171765 230.492937 
L 272.44492 229.640816 
L 273.718075 229.435621 
L 274.99123 230.178705 
L 277.53754 228.938979 
L 280.08385 226.546254 
L 281.357005 223.708308 
L 282.63016 224.847746 
L 283.903316 223.827771 
L 285.176471 220.468096 
L 286.449626 222.181962 
L 287.722781 219.384461 
L 288.995936 221.311008 
L 290.269091 216.255454 
L 291.542246 219.29457 
L 292.815401 216.962312 
L 294.088556 213.45528 
L 295.361711 212.767746 
L 296.634866 214.726331 
L 297.908021 213.346511 
L 299.181176 209.337519 
L 300.454332 207.715267 
L 301.727487 210.298127 
L 303.000642 209.786156 
L 304.273797 208.012551 
L 305.546952 203.328369 
L 306.820107 202.586251 
L 308.093262 202.654619 
L 309.366417 203.821001 
L 310.639572 199.522345 
L 311.912727 197.681055 
L 313.185882 199.970714 
L 314.459037 199.470047 
L 315.732193 198.564099 
L 317.005348 192.497067 
L 318.278503 195.669459 
L 319.551658 193.772856 
L 320.824813 193.493752 
L 322.097968 191.828664 
L 323.371123 190.813902 
L 324.644278 187.483161 
L 325.917433 188.16009 
L 328.463743 181.640455 
L 329.736898 179.979258 
L 331.010053 184.101311 
L 333.556364 181.198873 
L 334.829519 176.763925 
L 336.102674 175.643855 
L 337.375829 177.872499 
L 338.648984 176.733357 
L 339.922139 170.460506 
L 341.195294 172.757043 
L 342.468449 170.556858 
L 343.741604 170.917862 
L 345.014759 166.27154 
L 346.287914 167.406374 
L 347.56107 163.326474 
L 348.834225 164.50196 
L 350.10738 163.703534 
L 351.380535 161.090062 
L 352.65369 160.403078 
L 353.926845 155.401426 
L 355.2 155.175853 
L 356.473155 154.069091 
L 357.74631 152.777424 
L 359.019465 153.733902 
L 360.29262 147.346073 
L 361.565775 144.776893 
L 362.83893 149.085857 
L 364.112086 141.570116 
L 365.385241 146.339451 
L 367.931551 137.739822 
L 369.204706 140.447536 
L 370.477861 138.425142 
L 371.751016 138.892895 
L 373.024171 133.324941 
L 374.297326 135.393973 
L 375.570481 132.219694 
L 376.843636 130.713623 
L 379.389947 126.474082 
L 380.663102 126.48139 
L 381.936257 120.494489 
L 383.209412 124.856999 
L 384.482567 117.752093 
L 385.755722 117.938083 
L 387.028877 117.460245 
L 388.302032 119.830216 
L 389.575187 111.297024 
L 390.848342 116.171148 
L 392.121497 114.950285 
L 393.394652 108.321628 
L 394.667807 112.085544 
L 395.940963 110.791159 
L 397.214118 107.707038 
L 398.487273 106.555168 
L 398.487273 106.555168 
" clip-path="url(#p836c2c5f9b)" style="fill: none; stroke: #0000ff; stroke-width: 1.5; stroke-linecap: square"/>
   </g>
   <g id="line2d_34">
    <path d="M 73.832727 294.892638 
L 85.291123 294.78476 
L 95.476364 294.445308 
L 104.388449 293.925364 
L 113.300535 293.178202 
L 122.21262 292.189527 
L 131.124706 290.947366 
L 138.763636 289.673006 
L 146.402567 288.198938 
L 154.041497 286.519834 
L 161.680428 284.63078 
L 169.319358 282.527208 
L 176.958289 280.204844 
L 184.597219 277.659669 
L 192.23615 274.887886 
L 199.87508 271.885892 
L 207.514011 268.650259 
L 215.152941 265.177712 
L 222.791872 261.465119 
L 230.430802 257.509473 
L 238.069733 253.307882 
L 245.708663 248.857563 
L 253.347594 244.155828 
L 260.986524 239.200077 
L 268.625455 233.987797 
L 276.264385 228.51655 
L 283.903316 222.78397 
L 291.542246 216.787759 
L 299.181176 210.525682 
L 306.820107 203.995562 
L 314.459037 197.195278 
L 322.097968 190.122763 
L 329.736898 182.775998 
L 337.375829 175.153011 
L 345.014759 167.251875 
L 352.65369 159.070705 
L 360.29262 150.607656 
L 369.204706 140.375428 
L 378.116791 129.754266 
L 387.028877 118.74143 
L 395.940963 107.334237 
L 398.487273 104.002237 
L 398.487273 104.002237 
" clip-path="url(#p836c2c5f9b)" style="fill: none; stroke: #000000; stroke-width: 1.5; stroke-linecap: square"/>
   </g>
   <g id="patch_3">
    <path d="M 57.6 307.584 
L 57.6 41.472 
" style="fill: none; stroke: #000000; stroke-width: 0.8; stroke-linejoin: miter; stroke-linecap: square"/>
   </g>
   <g id="patch_4">
    <path d="M 414.72 307.584 
L 414.72 41.472 
" style="fill: none; stroke: #000000; stroke-width: 0.8; stroke-linejoin: miter; stroke-linecap: square"/>
   </g>
   <g id="patch_5">
    <path d="M 57.6 307.584 
L 414.72 307.584 
" style="fill: none; stroke: #000000; stroke-width: 0.8; stroke-linejoin: miter; stroke-linecap: square"/>
   </g>
   <g id="patch_6">
    <path d="M 57.6 41.472 
L 414.72 41.472 
" style="fill: none; stroke: #000000; stroke-width: 0.8; stroke-linejoin: miter; stroke-linecap: square"/>
   </g>
  </g>
 </g>
 <defs>
  <clipPath id="p836c2c5f9b">
   <rect x="57.6" y="41.472" width="357.12" height="266.112"/>
  </clipPath>
 </defs>
</svg>
